<?xml version="1.0" encoding="UTF-8" standalone="no"?>
<!DOCTYPE svg PUBLIC "-//W3C//DTD SVG 1.1//EN"
 "http://www.w3.org/Graphics/SVG/1.1/DTD/svg11.dtd">
<!-- Generated by graphviz version 2.40.1 (20161225.0304)
 -->
<!-- Title: G Pages: 1 -->
<svg width="981pt" height="367pt"
 viewBox="0.00 0.00 981.28 367.04" xmlns="http://www.w3.org/2000/svg" xmlns:xlink="http://www.w3.org/1999/xlink">
<g id="graph0" class="graph" transform="scale(1 1) rotate(0) translate(21.6 345.4396)">
<title>G</title>
<polygon fill="#111111" stroke="transparent" points="-21.6,21.6 -21.6,-345.4396 959.6801,-345.4396 959.6801,21.6 -21.6,21.6"/>
<!-- ../Executable.ts -->
<g id="node1" class="node">
<title>../Executable.ts</title>
<path fill="none" stroke="#ff6c60" d="M339.0126,-174.1482C339.0126,-174.1482 243.7101,-174.1482 243.7101,-174.1482 239.6771,-174.1482 235.6442,-170.1152 235.6442,-166.0823 235.6442,-166.0823 235.6442,-158.0164 235.6442,-158.0164 235.6442,-153.9834 239.6771,-149.9505 243.7101,-149.9505 243.7101,-149.9505 339.0126,-149.9505 339.0126,-149.9505 343.0455,-149.9505 347.0785,-153.9834 347.0785,-158.0164 347.0785,-158.0164 347.0785,-166.0823 347.0785,-166.0823 347.0785,-170.1152 343.0455,-174.1482 339.0126,-174.1482"/>
<text text-anchor="middle" x="291.3613" y="-158.8986" font-family="Arial" font-size="14.00" fill="#ff6c60">../Executable.ts</text>
</g>
<!-- ../StateMachine.ts -->
<g id="node2" class="node">
<title>../StateMachine.ts</title>
<path fill="none" stroke="#ff6c60" d="M503.2359,-134.1482C503.2359,-134.1482 391.2583,-134.1482 391.2583,-134.1482 387.2253,-134.1482 383.1924,-130.1152 383.1924,-126.0823 383.1924,-126.0823 383.1924,-118.0164 383.1924,-118.0164 383.1924,-113.9834 387.2253,-109.9505 391.2583,-109.9505 391.2583,-109.9505 503.2359,-109.9505 503.2359,-109.9505 507.2688,-109.9505 511.3018,-113.9834 511.3018,-118.0164 511.3018,-118.0164 511.3018,-126.0823 511.3018,-126.0823 511.3018,-130.1152 507.2688,-134.1482 503.2359,-134.1482"/>
<text text-anchor="middle" x="447.2471" y="-118.8986" font-family="Arial" font-size="14.00" fill="#ff6c60">../StateMachine.ts</text>
</g>
<!-- ../Executable.ts&#45;&gt;../StateMachine.ts -->
<g id="edge1" class="edge">
<title>../Executable.ts&#45;&gt;../StateMachine.ts</title>
<path fill="none" stroke="#757575" d="M338.5552,-149.9394C354.8856,-145.7491 373.3606,-141.0085 390.3848,-136.6401"/>
<polygon fill="#757575" stroke="#757575" points="391.3973,-139.9937 400.2136,-134.118 389.6574,-133.2134 391.3973,-139.9937"/>
</g>
<!-- ../event/event.ts -->
<g id="node3" class="node">
<title>../event/event.ts</title>
<path fill="none" stroke="#ff6c60" d="M654.3493,-195.1482C654.3493,-195.1482 555.8128,-195.1482 555.8128,-195.1482 551.7799,-195.1482 547.747,-191.1152 547.747,-187.0823 547.747,-187.0823 547.747,-179.0164 547.747,-179.0164 547.747,-174.9834 551.7799,-170.9505 555.8128,-170.9505 555.8128,-170.9505 654.3493,-170.9505 654.3493,-170.9505 658.3822,-170.9505 662.4152,-174.9834 662.4152,-179.0164 662.4152,-179.0164 662.4152,-187.0823 662.4152,-187.0823 662.4152,-191.1152 658.3822,-195.1482 654.3493,-195.1482"/>
<text text-anchor="middle" x="605.0811" y="-179.8986" font-family="Arial" font-size="14.00" fill="#ff6c60">../event/event.ts</text>
</g>
<!-- ../StateMachine.ts&#45;&gt;../event/event.ts -->
<g id="edge2" class="edge">
<title>../StateMachine.ts&#45;&gt;../event/event.ts</title>
<path fill="none" stroke="#757575" d="M478.43,-134.101C502.994,-143.5945 537.4413,-156.9078 564.2107,-167.2537"/>
<polygon fill="#757575" stroke="#757575" points="563.1038,-170.5781 573.6932,-170.9185 565.6273,-164.0488 563.1038,-170.5781"/>
</g>
<!-- ../types.ts -->
<g id="node4" class="node">
<title>../types.ts</title>
<path fill="none" stroke="#ff6c60" d="M929.9693,-195.1482C929.9693,-195.1482 870.2807,-195.1482 870.2807,-195.1482 866.2477,-195.1482 862.2148,-191.1152 862.2148,-187.0823 862.2148,-187.0823 862.2148,-179.0164 862.2148,-179.0164 862.2148,-174.9834 866.2477,-170.9505 870.2807,-170.9505 870.2807,-170.9505 929.9693,-170.9505 929.9693,-170.9505 934.0023,-170.9505 938.0352,-174.9834 938.0352,-179.0164 938.0352,-179.0164 938.0352,-187.0823 938.0352,-187.0823 938.0352,-191.1152 934.0023,-195.1482 929.9693,-195.1482"/>
<text text-anchor="middle" x="900.125" y="-179.8986" font-family="Arial" font-size="14.00" fill="#ff6c60">../types.ts</text>
</g>
<!-- ../StateMachine.ts&#45;&gt;../types.ts -->
<g id="edge3" class="edge">
<title>../StateMachine.ts&#45;&gt;../types.ts</title>
<path fill="none" stroke="#757575" d="M470.7305,-109.7819C532.9359,-79.1181 705.4605,-6.1047 826.1699,-71.0493 861.4941,-90.0546 882.7526,-134.1454 892.8891,-160.9898"/>
<polygon fill="#757575" stroke="#757575" points="889.6862,-162.4283 896.3447,-170.6694 896.2787,-160.0748 889.6862,-162.4283"/>
</g>
<!-- ../util/Pending.ts -->
<g id="node5" class="node">
<title>../util/Pending.ts</title>
<path fill="none" stroke="#c6c5fe" d="M654.6291,-24.1482C654.6291,-24.1482 555.533,-24.1482 555.533,-24.1482 551.5001,-24.1482 547.4671,-20.1152 547.4671,-16.0823 547.4671,-16.0823 547.4671,-8.0164 547.4671,-8.0164 547.4671,-3.9834 551.5001,.0495 555.533,.0495 555.533,.0495 654.6291,.0495 654.6291,.0495 658.662,.0495 662.695,-3.9834 662.695,-8.0164 662.695,-8.0164 662.695,-16.0823 662.695,-16.0823 662.695,-20.1152 658.662,-24.1482 654.6291,-24.1482"/>
<text text-anchor="middle" x="605.0811" y="-8.8986" font-family="Arial" font-size="14.00" fill="#c6c5fe">../util/Pending.ts</text>
</g>
<!-- ../StateMachine.ts&#45;&gt;../util/Pending.ts -->
<g id="edge4" class="edge">
<title>../StateMachine.ts&#45;&gt;../util/Pending.ts</title>
<path fill="none" stroke="#757575" d="M459.3196,-109.9734C477.296,-92.4637 512.7036,-59.7522 547.2744,-38.0493 552.7178,-34.632 558.6864,-31.4207 564.6571,-28.4992"/>
<polygon fill="#757575" stroke="#757575" points="566.382,-31.5568 573.9663,-24.159 563.424,-25.2125 566.382,-31.5568"/>
</g>
<!-- ../event/event.ts&#45;&gt;../Executable.ts -->
<g id="edge10" class="edge">
<title>../event/event.ts&#45;&gt;../Executable.ts</title>
<path fill="none" stroke="#757575" d="M547.4876,-179.1941C493.74,-175.5963 413.5973,-170.2316 357.3078,-166.4637"/>
<polygon fill="#757575" stroke="#757575" points="357.2981,-162.9553 347.0866,-165.7795 356.8305,-169.9397 357.2981,-162.9553"/>
</g>
<!-- ../event/event.ts&#45;&gt;../types.ts -->
<g id="edge15" class="edge">
<title>../event/event.ts&#45;&gt;../types.ts</title>
<path fill="none" stroke="#757575" d="M662.6689,-177.5683C717.7382,-175.7743 799.8451,-175.8825 851.6554,-177.8927"/>
<polygon fill="#757575" stroke="#757575" points="851.7718,-181.4009 861.9134,-178.3353 852.0736,-174.4074 851.7718,-181.4009"/>
</g>
<!-- ../event/Call.ts -->
<g id="node6" class="node">
<title>../event/Call.ts</title>
<path fill="none" stroke="#ff6c60" d="M806.6665,-146.1482C806.6665,-146.1482 718.3912,-146.1482 718.3912,-146.1482 714.3582,-146.1482 710.3253,-142.1152 710.3253,-138.0823 710.3253,-138.0823 710.3253,-130.0164 710.3253,-130.0164 710.3253,-125.9834 714.3582,-121.9505 718.3912,-121.9505 718.3912,-121.9505 806.6665,-121.9505 806.6665,-121.9505 810.6994,-121.9505 814.7324,-125.9834 814.7324,-130.0164 814.7324,-130.0164 814.7324,-138.0823 814.7324,-138.0823 814.7324,-142.1152 810.6994,-146.1482 806.6665,-146.1482"/>
<text text-anchor="middle" x="762.5288" y="-130.8986" font-family="Arial" font-size="14.00" fill="#ff6c60">../event/Call.ts</text>
</g>
<!-- ../event/event.ts&#45;&gt;../event/Call.ts -->
<g id="edge11" class="edge">
<title>../event/event.ts&#45;&gt;../event/Call.ts</title>
<path fill="none" stroke="#757575" d="M627.9753,-170.9962C647.0333,-163.5147 675.0851,-154.2237 700.6502,-146.6961"/>
<polygon fill="#757575" stroke="#757575" points="701.6685,-150.0451 710.3026,-143.9049 699.7239,-143.3206 701.6685,-150.0451"/>
</g>
<!-- ../event/Cast.ts -->
<g id="node7" class="node">
<title>../event/Cast.ts</title>
<path fill="none" stroke="#ff6c60" d="M809.3356,-104.1482C809.3356,-104.1482 715.722,-104.1482 715.722,-104.1482 711.689,-104.1482 707.6561,-100.1152 707.6561,-96.0823 707.6561,-96.0823 707.6561,-88.0164 707.6561,-88.0164 707.6561,-83.9834 711.689,-79.9505 715.722,-79.9505 715.722,-79.9505 809.3356,-79.9505 809.3356,-79.9505 813.3686,-79.9505 817.4015,-83.9834 817.4015,-88.0164 817.4015,-88.0164 817.4015,-96.0823 817.4015,-96.0823 817.4015,-100.1152 813.3686,-104.1482 809.3356,-104.1482"/>
<text text-anchor="middle" x="762.5288" y="-88.8986" font-family="Arial" font-size="14.00" fill="#ff6c60">../event/Cast.ts</text>
</g>
<!-- ../event/event.ts&#45;&gt;../event/Cast.ts -->
<g id="edge12" class="edge">
<title>../event/event.ts&#45;&gt;../event/Cast.ts</title>
<path fill="none" stroke="#757575" d="M612.7693,-170.84C627.0021,-154.3146 658.9805,-126.5188 698.4677,-104.754"/>
<polygon fill="#757575" stroke="#757575" points="700.3633,-107.7102 707.5514,-99.9267 697.0784,-101.5288 700.3633,-107.7102"/>
</g>
<!-- ../event/Info.ts -->
<g id="node8" class="node">
<title>../event/Info.ts</title>
<path fill="none" stroke="#ff6c60" d="M806.4004,-286.1482C806.4004,-286.1482 718.6572,-286.1482 718.6572,-286.1482 714.6242,-286.1482 710.5913,-282.1152 710.5913,-278.0823 710.5913,-278.0823 710.5913,-270.0164 710.5913,-270.0164 710.5913,-265.9834 714.6242,-261.9505 718.6572,-261.9505 718.6572,-261.9505 806.4004,-261.9505 806.4004,-261.9505 810.4334,-261.9505 814.4663,-265.9834 814.4663,-270.0164 814.4663,-270.0164 814.4663,-278.0823 814.4663,-278.0823 814.4663,-282.1152 810.4334,-286.1482 806.4004,-286.1482"/>
<text text-anchor="middle" x="762.5288" y="-270.8986" font-family="Arial" font-size="14.00" fill="#ff6c60">../event/Info.ts</text>
</g>
<!-- ../event/event.ts&#45;&gt;../event/Info.ts -->
<g id="edge13" class="edge">
<title>../event/event.ts&#45;&gt;../event/Info.ts</title>
<path fill="none" stroke="#757575" d="M626.837,-195.2383C645.0261,-208.9379 672.2106,-230.1643 698.8877,-244.0493 709.9032,-249.7827 722.7962,-254.3857 734.0862,-258.4566"/>
<polygon fill="#757575" stroke="#757575" points="732.9139,-261.7545 743.5076,-261.912 735.3243,-255.1826 732.9139,-261.7545"/>
</g>
<!-- ../event/Internal.ts -->
<g id="node9" class="node">
<title>../event/Internal.ts</title>
<path fill="none" stroke="#ff6c60" d="M818.2455,-244.1482C818.2455,-244.1482 706.8122,-244.1482 706.8122,-244.1482 702.7792,-244.1482 698.7463,-240.1152 698.7463,-236.0823 698.7463,-236.0823 698.7463,-228.0164 698.7463,-228.0164 698.7463,-223.9834 702.7792,-219.9505 706.8122,-219.9505 706.8122,-219.9505 818.2455,-219.9505 818.2455,-219.9505 822.2784,-219.9505 826.3113,-223.9834 826.3113,-228.0164 826.3113,-228.0164 826.3113,-236.0823 826.3113,-236.0823 826.3113,-240.1152 822.2784,-244.1482 818.2455,-244.1482"/>
<text text-anchor="middle" x="762.5288" y="-228.8986" font-family="Arial" font-size="14.00" fill="#ff6c60">../event/Internal.ts</text>
</g>
<!-- ../event/event.ts&#45;&gt;../event/Internal.ts -->
<g id="edge14" class="edge">
<title>../event/event.ts&#45;&gt;../event/Internal.ts</title>
<path fill="none" stroke="#757575" d="M662.8148,-194.4848C685.3854,-201.03 710.4393,-209.138 729.7875,-216.2603"/>
<polygon fill="#757575" stroke="#757575" points="728.7504,-219.6101 739.3418,-219.8814 731.2313,-213.0645 728.7504,-219.6101"/>
</g>
<!-- ../types.ts&#45;&gt;../event/event.ts -->
<g id="edge16" class="edge">
<title>../types.ts&#45;&gt;../event/event.ts</title>
<path fill="none" stroke="#757575" d="M861.9134,-187.7634C814.1542,-190.0547 731.5741,-190.412 672.9556,-188.8352"/>
<polygon fill="#757575" stroke="#757575" points="672.7683,-185.3282 662.6689,-188.5303 672.5608,-192.3251 672.7683,-185.3282"/>
</g>
<!-- ../util/Deferred.ts -->
<g id="node10" class="node">
<title>../util/Deferred.ts</title>
<path fill="none" stroke="#cfffac" d="M813.6664,-24.1482C813.6664,-24.1482 711.3912,-24.1482 711.3912,-24.1482 707.3583,-24.1482 703.3253,-20.1152 703.3253,-16.0823 703.3253,-16.0823 703.3253,-8.0164 703.3253,-8.0164 703.3253,-3.9834 707.3583,.0495 711.3912,.0495 711.3912,.0495 813.6664,.0495 813.6664,.0495 817.6994,.0495 821.7323,-3.9834 821.7323,-8.0164 821.7323,-8.0164 821.7323,-16.0823 821.7323,-16.0823 821.7323,-20.1152 817.6994,-24.1482 813.6664,-24.1482"/>
<text text-anchor="middle" x="762.5288" y="-8.8986" font-family="Arial" font-size="14.00" fill="#cfffac">../util/Deferred.ts</text>
</g>
<!-- ../util/Pending.ts&#45;&gt;../util/Deferred.ts -->
<g id="edge17" class="edge">
<title>../util/Pending.ts&#45;&gt;../util/Deferred.ts</title>
<path fill="none" stroke="#757575" d="M662.8148,-12.0493C672.6883,-12.0493 683.037,-12.0493 693.1755,-12.0493"/>
<polygon fill="#757575" stroke="#757575" points="693.2184,-15.5494 703.2184,-12.0493 693.2184,-8.5494 693.2184,-15.5494"/>
</g>
<!-- ../event/Call.ts&#45;&gt;../event/event.ts -->
<g id="edge5" class="edge">
<title>../event/Call.ts&#45;&gt;../event/event.ts</title>
<path fill="none" stroke="#757575" d="M739.3418,-146.2172C721.6823,-153.1336 696.424,-161.5732 672.5706,-168.7341"/>
<polygon fill="#757575" stroke="#757575" points="671.4148,-165.4259 662.8148,-171.6138 673.3965,-172.1396 671.4148,-165.4259"/>
</g>
<!-- ../event/Call.ts&#45;&gt;../types.ts -->
<g id="edge6" class="edge">
<title>../event/Call.ts&#45;&gt;../types.ts</title>
<path fill="none" stroke="#757575" d="M796.5414,-146.1617C814.6507,-152.6107 837.1237,-160.6136 856.5045,-167.5154"/>
<polygon fill="#757575" stroke="#757575" points="855.4322,-170.8488 866.0269,-170.9065 857.7806,-164.2545 855.4322,-170.8488"/>
</g>
<!-- ../event/Cast.ts&#45;&gt;../event/event.ts -->
<g id="edge7" class="edge">
<title>../event/Cast.ts&#45;&gt;../event/event.ts</title>
<path fill="none" stroke="#757575" d="M743.5076,-104.1866C730.5107,-109.1132 713.13,-114.6364 698.8877,-122.0493 675.9621,-133.9817 652.6617,-151.336 635.0178,-164.6756"/>
<polygon fill="#757575" stroke="#757575" points="632.7033,-162.0377 626.837,-170.8603 636.9247,-167.6216 632.7033,-162.0377"/>
</g>
<!-- ../event/Info.ts&#45;&gt;../event/event.ts -->
<g id="edge8" class="edge">
<title>../event/Info.ts&#45;&gt;../event/event.ts</title>
<path fill="none" stroke="#757575" d="M710.541,-267.4378C706.5321,-265.7883 702.6031,-263.9831 698.8877,-262.0493 668.5634,-246.266 637.5833,-220.9965 619.9054,-202.9709"/>
<polygon fill="#757575" stroke="#757575" points="622.1299,-200.2215 612.7693,-195.2586 616.992,-204.9756 622.1299,-200.2215"/>
</g>
<!-- ../event/Internal.ts&#45;&gt;../event/event.ts -->
<g id="edge9" class="edge">
<title>../event/Internal.ts&#45;&gt;../event/event.ts</title>
<path fill="none" stroke="#757575" d="M702.5493,-219.9598C680.4543,-213.4986 656.2677,-205.6397 637.5156,-198.7253"/>
<polygon fill="#757575" stroke="#757575" points="638.5665,-195.3806 627.9753,-195.1024 636.0814,-201.9246 638.5665,-195.3806"/>
</g>
<!-- NextEvent.ts -->
<g id="node11" class="node">
<title>NextEvent.ts</title>
<path fill="none" stroke="#c6c5fe" d="M87.4827,-214.1482C87.4827,-214.1482 7.8826,-214.1482 7.8826,-214.1482 3.8496,-214.1482 -.1833,-210.1152 -.1833,-206.0823 -.1833,-206.0823 -.1833,-198.0164 -.1833,-198.0164 -.1833,-193.9834 3.8496,-189.9505 7.8826,-189.9505 7.8826,-189.9505 87.4827,-189.9505 87.4827,-189.9505 91.5156,-189.9505 95.5486,-193.9834 95.5486,-198.0164 95.5486,-198.0164 95.5486,-206.0823 95.5486,-206.0823 95.5486,-210.1152 91.5156,-214.1482 87.4827,-214.1482"/>
<text text-anchor="middle" x="47.6826" y="-198.8986" font-family="Arial" font-size="14.00" fill="#c6c5fe">NextEvent.ts</text>
</g>
<!-- NextEvent.ts&#45;&gt;../event/event.ts -->
<g id="edge18" class="edge">
<title>NextEvent.ts&#45;&gt;../event/event.ts</title>
<path fill="none" stroke="#757575" d="M95.6885,-200.4129C195.0184,-197.0271 423.3346,-189.2445 537.5029,-185.3528"/>
<polygon fill="#757575" stroke="#757575" points="537.6465,-188.8501 547.5214,-185.0113 537.408,-181.8541 537.6465,-188.8501"/>
</g>
<!-- NextEvent.ts&#45;&gt;../types.ts -->
<g id="edge19" class="edge">
<title>NextEvent.ts&#45;&gt;../types.ts</title>
<path fill="none" stroke="#757575" d="M62.2697,-214.2485C98.5185,-243.2764 196.6119,-314.0493 291.3613,-314.0493 291.3613,-314.0493 291.3613,-314.0493 605.0811,-314.0493 703.705,-314.0493 741.4007,-345.4562 826.1699,-295.0493 860.6473,-274.5478 882.1979,-230.9731 892.6165,-204.6272"/>
<polygon fill="#757575" stroke="#757575" points="895.94,-205.7326 896.1813,-195.1405 889.3874,-203.2703 895.94,-205.7326"/>
</g>
<!-- action.ts -->
<g id="node12" class="node">
<title>action.ts</title>
<path fill="none" stroke="#c6c5fe" d="M191.506,-174.1482C191.506,-174.1482 139.3621,-174.1482 139.3621,-174.1482 135.3292,-174.1482 131.2962,-170.1152 131.2962,-166.0823 131.2962,-166.0823 131.2962,-158.0164 131.2962,-158.0164 131.2962,-153.9834 135.3292,-149.9505 139.3621,-149.9505 139.3621,-149.9505 191.506,-149.9505 191.506,-149.9505 195.539,-149.9505 199.5719,-153.9834 199.5719,-158.0164 199.5719,-158.0164 199.5719,-166.0823 199.5719,-166.0823 199.5719,-170.1152 195.539,-174.1482 191.506,-174.1482"/>
<text text-anchor="middle" x="165.4341" y="-158.8986" font-family="Arial" font-size="14.00" fill="#c6c5fe">action.ts</text>
</g>
<!-- NextEvent.ts&#45;&gt;action.ts -->
<g id="edge20" class="edge">
<title>NextEvent.ts&#45;&gt;action.ts</title>
<path fill="none" stroke="#757575" d="M83.3315,-189.9394C95.2957,-185.8752 108.7839,-181.2933 121.3181,-177.0355"/>
<polygon fill="#757575" stroke="#757575" points="122.7755,-180.2369 131.1184,-173.7063 120.524,-173.6088 122.7755,-180.2369"/>
</g>
<!-- action.ts&#45;&gt;../Executable.ts -->
<g id="edge21" class="edge">
<title>action.ts&#45;&gt;../Executable.ts</title>
<path fill="none" stroke="#757575" d="M199.5118,-162.0493C207.556,-162.0493 216.4034,-162.0493 225.3331,-162.0493"/>
<polygon fill="#757575" stroke="#757575" points="225.4117,-165.5494 235.4117,-162.0493 225.4116,-158.5494 225.4117,-165.5494"/>
</g>
<!-- action.ts&#45;&gt;../StateMachine.ts -->
<g id="edge22" class="edge">
<title>action.ts&#45;&gt;../StateMachine.ts</title>
<path fill="none" stroke="#757575" d="M199.6601,-150.287C210.9531,-146.8122 223.6565,-143.3318 235.5029,-141.0493 280.6076,-132.359 331.9004,-127.6277 372.7048,-125.0601"/>
<polygon fill="#757575" stroke="#757575" points="373.0699,-128.5446 382.8427,-124.4528 372.6512,-121.5571 373.0699,-128.5446"/>
</g>
</g>
</svg>
